<mxfile host="app.diagrams.net" modified="2022-02-09T18:28:36.242Z" agent="5.0 (Macintosh; Intel Mac OS X 10_15_7) AppleWebKit/537.36 (KHTML, like Gecko) Chrome/98.0.4758.80 Safari/537.36" etag="Z_dkX3NIoa4vxFuCN_8Q" version="16.5.3" type="github">
  <diagram name="SimpleButton" id="7e0a89b8-554c-2b80-1dc8-d5c74ca68de4">
    <mxGraphModel dx="1688" dy="907" grid="0" gridSize="10" guides="1" tooltips="1" connect="1" arrows="1" fold="1" page="1" pageScale="1" pageWidth="583" pageHeight="827" background="none" math="0" shadow="0">
      <root>
        <mxCell id="0" />
        <mxCell id="1" parent="0" />
        <mxCell id="YJIOkTXqwVeN9oeFz0Is-87" value="" style="group;rotation=90;" vertex="1" connectable="0" parent="1">
          <mxGeometry y="171" width="590" height="504.5" as="geometry" />
        </mxCell>
        <mxCell id="YJIOkTXqwVeN9oeFz0Is-80" value="" style="group;rotation=90;" vertex="1" connectable="0" parent="YJIOkTXqwVeN9oeFz0Is-87">
          <mxGeometry x="-111" y="111" width="590" height="282.5" as="geometry" />
        </mxCell>
        <mxCell id="YJIOkTXqwVeN9oeFz0Is-35" value="" style="group;movable=1;resizable=1;rotatable=1;deletable=1;editable=1;connectable=1;rotation=90;" vertex="1" connectable="0" parent="YJIOkTXqwVeN9oeFz0Is-80">
          <mxGeometry width="590" height="282.5" as="geometry" />
        </mxCell>
        <mxCell id="YJIOkTXqwVeN9oeFz0Is-5" value="" style="rounded=1;whiteSpace=wrap;html=1;strokeWidth=2;fillColor=default;verticalAlign=bottom;arcSize=11;spacing=1;rotation=90;" vertex="1" parent="YJIOkTXqwVeN9oeFz0Is-35">
          <mxGeometry x="41" y="-19" width="530" height="260" as="geometry" />
        </mxCell>
        <mxCell id="YJIOkTXqwVeN9oeFz0Is-29" value="" style="ellipse;whiteSpace=wrap;html=1;aspect=fixed;fontSize=10;strokeWidth=2;fillColor=default;spacing=1;rotation=90;" vertex="1" parent="YJIOkTXqwVeN9oeFz0Is-35">
          <mxGeometry x="396" y="-144" width="30" height="30" as="geometry" />
        </mxCell>
        <mxCell id="YJIOkTXqwVeN9oeFz0Is-30" value="" style="ellipse;whiteSpace=wrap;html=1;aspect=fixed;fontSize=10;strokeWidth=2;fillColor=default;spacing=1;rotation=90;" vertex="1" parent="YJIOkTXqwVeN9oeFz0Is-35">
          <mxGeometry x="186" y="-144" width="30" height="30" as="geometry" />
        </mxCell>
        <mxCell id="YJIOkTXqwVeN9oeFz0Is-31" value="&lt;br&gt;&lt;br&gt;&lt;br&gt;&lt;br&gt;&lt;br&gt;&lt;br&gt;&lt;br&gt;" style="ellipse;whiteSpace=wrap;html=1;aspect=fixed;fontSize=10;strokeWidth=2;fillColor=default;spacing=1;rotation=90;" vertex="1" parent="YJIOkTXqwVeN9oeFz0Is-35">
          <mxGeometry x="396" y="336" width="30" height="30" as="geometry" />
        </mxCell>
        <mxCell id="YJIOkTXqwVeN9oeFz0Is-32" value="" style="ellipse;whiteSpace=wrap;html=1;aspect=fixed;fontSize=10;strokeWidth=2;fillColor=default;spacing=1;rotation=90;" vertex="1" parent="YJIOkTXqwVeN9oeFz0Is-35">
          <mxGeometry x="186" y="336" width="30" height="30" as="geometry" />
        </mxCell>
        <mxCell id="YJIOkTXqwVeN9oeFz0Is-36" value="VIN" style="ellipse;whiteSpace=wrap;html=1;aspect=fixed;strokeWidth=1;fillColor=default;verticalAlign=bottom;horizontal=1;fontSize=8;spacing=1;spacingTop=0;flipH=1;flipV=0;spacingBottom=10;rotation=90;" vertex="1" parent="YJIOkTXqwVeN9oeFz0Is-35">
          <mxGeometry x="196" y="272" width="10" height="10" as="geometry" />
        </mxCell>
        <mxCell id="YJIOkTXqwVeN9oeFz0Is-37" value="GND" style="ellipse;whiteSpace=wrap;html=1;aspect=fixed;strokeWidth=1;fillColor=default;verticalAlign=bottom;horizontal=1;fontSize=8;spacing=1;spacingTop=0;flipH=1;flipV=0;spacingBottom=10;rotation=90;" vertex="1" parent="YJIOkTXqwVeN9oeFz0Is-35">
          <mxGeometry x="196" y="246" width="10" height="10" as="geometry" />
        </mxCell>
        <mxCell id="YJIOkTXqwVeN9oeFz0Is-38" value="D13" style="ellipse;whiteSpace=wrap;html=1;aspect=fixed;strokeWidth=1;fillColor=default;verticalAlign=bottom;horizontal=1;fontSize=8;spacing=1;spacingTop=0;flipH=1;flipV=0;spacingBottom=10;rotation=90;" vertex="1" parent="YJIOkTXqwVeN9oeFz0Is-35">
          <mxGeometry x="196" y="220" width="10" height="10" as="geometry" />
        </mxCell>
        <mxCell id="YJIOkTXqwVeN9oeFz0Is-39" value="D12" style="ellipse;whiteSpace=wrap;html=1;aspect=fixed;strokeWidth=1;fillColor=default;verticalAlign=bottom;horizontal=1;fontSize=8;spacing=1;spacingTop=0;flipH=1;flipV=0;spacingBottom=10;rotation=90;" vertex="1" parent="YJIOkTXqwVeN9oeFz0Is-35">
          <mxGeometry x="196" y="194" width="10" height="10" as="geometry" />
        </mxCell>
        <mxCell id="YJIOkTXqwVeN9oeFz0Is-40" value="D14" style="ellipse;whiteSpace=wrap;html=1;aspect=fixed;strokeWidth=1;fillColor=default;verticalAlign=bottom;horizontal=1;fontSize=8;spacing=1;spacingTop=0;flipH=1;flipV=0;spacingBottom=10;rotation=90;" vertex="1" parent="YJIOkTXqwVeN9oeFz0Is-35">
          <mxGeometry x="196" y="167" width="10" height="10" as="geometry" />
        </mxCell>
        <mxCell id="YJIOkTXqwVeN9oeFz0Is-41" value="D27" style="ellipse;whiteSpace=wrap;html=1;aspect=fixed;strokeWidth=1;fillColor=default;verticalAlign=bottom;horizontal=1;fontSize=8;spacing=1;spacingTop=0;flipH=1;flipV=0;spacingBottom=10;rotation=90;" vertex="1" parent="YJIOkTXqwVeN9oeFz0Is-35">
          <mxGeometry x="196" y="141" width="10" height="10" as="geometry" />
        </mxCell>
        <mxCell id="YJIOkTXqwVeN9oeFz0Is-42" value="D26" style="ellipse;whiteSpace=wrap;html=1;aspect=fixed;strokeWidth=1;fillColor=default;verticalAlign=bottom;horizontal=1;fontSize=8;spacing=1;spacingTop=0;flipH=1;flipV=0;spacingBottom=10;rotation=90;" vertex="1" parent="YJIOkTXqwVeN9oeFz0Is-35">
          <mxGeometry x="196" y="115" width="10" height="10" as="geometry" />
        </mxCell>
        <mxCell id="YJIOkTXqwVeN9oeFz0Is-43" value="D25" style="ellipse;whiteSpace=wrap;html=1;aspect=fixed;strokeWidth=1;fillColor=default;verticalAlign=bottom;horizontal=1;fontSize=8;spacing=1;spacingTop=0;flipH=1;flipV=0;spacingBottom=10;rotation=90;" vertex="1" parent="YJIOkTXqwVeN9oeFz0Is-35">
          <mxGeometry x="196" y="89" width="10" height="10" as="geometry" />
        </mxCell>
        <mxCell id="YJIOkTXqwVeN9oeFz0Is-44" value="D33" style="ellipse;whiteSpace=wrap;html=1;aspect=fixed;strokeWidth=1;fillColor=default;verticalAlign=bottom;horizontal=1;fontSize=8;spacing=1;spacingTop=0;flipH=1;flipV=0;spacingBottom=10;rotation=90;" vertex="1" parent="YJIOkTXqwVeN9oeFz0Is-35">
          <mxGeometry x="196" y="63" width="10" height="10" as="geometry" />
        </mxCell>
        <mxCell id="YJIOkTXqwVeN9oeFz0Is-45" value="D32" style="ellipse;whiteSpace=wrap;html=1;aspect=fixed;strokeWidth=1;fillColor=default;verticalAlign=bottom;horizontal=1;fontSize=8;spacing=1;spacingTop=0;flipH=1;flipV=0;spacingBottom=10;rotation=90;" vertex="1" parent="YJIOkTXqwVeN9oeFz0Is-35">
          <mxGeometry x="196" y="37" width="10" height="10" as="geometry" />
        </mxCell>
        <mxCell id="YJIOkTXqwVeN9oeFz0Is-46" value="D35" style="ellipse;whiteSpace=wrap;html=1;aspect=fixed;strokeWidth=1;fillColor=default;verticalAlign=bottom;horizontal=1;fontSize=8;spacing=1;spacingTop=0;flipH=1;flipV=0;spacingBottom=10;rotation=90;" vertex="1" parent="YJIOkTXqwVeN9oeFz0Is-35">
          <mxGeometry x="196" y="11" width="10" height="10" as="geometry" />
        </mxCell>
        <mxCell id="YJIOkTXqwVeN9oeFz0Is-47" value="D34" style="ellipse;whiteSpace=wrap;html=1;aspect=fixed;strokeWidth=1;fillColor=default;verticalAlign=bottom;horizontal=1;fontSize=8;spacing=1;spacingTop=0;flipH=1;flipV=0;spacingBottom=10;rotation=90;" vertex="1" parent="YJIOkTXqwVeN9oeFz0Is-35">
          <mxGeometry x="196" y="-16" width="10" height="10" as="geometry" />
        </mxCell>
        <mxCell id="YJIOkTXqwVeN9oeFz0Is-48" value="VN" style="ellipse;whiteSpace=wrap;html=1;aspect=fixed;strokeWidth=1;fillColor=default;verticalAlign=bottom;horizontal=1;fontSize=8;spacing=1;spacingTop=0;flipH=1;flipV=0;spacingBottom=10;rotation=90;" vertex="1" parent="YJIOkTXqwVeN9oeFz0Is-35">
          <mxGeometry x="196" y="-42" width="10" height="10" as="geometry" />
        </mxCell>
        <mxCell id="YJIOkTXqwVeN9oeFz0Is-49" value="VP" style="ellipse;whiteSpace=wrap;html=1;aspect=fixed;strokeWidth=1;fillColor=default;verticalAlign=bottom;horizontal=1;fontSize=8;spacing=1;spacingTop=0;flipH=1;flipV=0;spacingBottom=10;rotation=90;" vertex="1" parent="YJIOkTXqwVeN9oeFz0Is-35">
          <mxGeometry x="196" y="-68" width="10" height="10" as="geometry" />
        </mxCell>
        <mxCell id="YJIOkTXqwVeN9oeFz0Is-50" value="EN" style="ellipse;whiteSpace=wrap;html=1;aspect=fixed;strokeWidth=1;fillColor=default;verticalAlign=bottom;horizontal=1;fontSize=8;spacing=1;spacingTop=0;flipH=1;flipV=0;spacingBottom=10;rotation=90;" vertex="1" parent="YJIOkTXqwVeN9oeFz0Is-35">
          <mxGeometry x="196" y="-94" width="10" height="10" as="geometry" />
        </mxCell>
        <mxCell id="YJIOkTXqwVeN9oeFz0Is-59" value="" style="rounded=0;whiteSpace=wrap;html=1;fontSize=8;strokeWidth=1;fillColor=default;spacing=1;rotation=90;" vertex="1" parent="YJIOkTXqwVeN9oeFz0Is-35">
          <mxGeometry x="185" y="-95" width="242" height="160" as="geometry" />
        </mxCell>
        <mxCell id="YJIOkTXqwVeN9oeFz0Is-60" value="" style="whiteSpace=wrap;html=1;aspect=fixed;fontSize=8;strokeWidth=1;fillColor=#424242;spacing=1;rotation=90;" vertex="1" parent="YJIOkTXqwVeN9oeFz0Is-35">
          <mxGeometry x="226" y="-54" width="160" height="160" as="geometry" />
        </mxCell>
        <mxCell id="YJIOkTXqwVeN9oeFz0Is-61" value="" style="rounded=0;whiteSpace=wrap;html=1;fontSize=8;strokeWidth=1;fillColor=default;spacing=1;rotation=90;" vertex="1" parent="YJIOkTXqwVeN9oeFz0Is-35">
          <mxGeometry x="356" y="127" width="40" height="40" as="geometry" />
        </mxCell>
        <mxCell id="YJIOkTXqwVeN9oeFz0Is-62" value="" style="rounded=0;whiteSpace=wrap;html=1;fontSize=8;strokeWidth=1;fillColor=default;spacing=1;rotation=90;" vertex="1" parent="YJIOkTXqwVeN9oeFz0Is-35">
          <mxGeometry x="261" y="82" width="40" height="130" as="geometry" />
        </mxCell>
        <mxCell id="YJIOkTXqwVeN9oeFz0Is-64" value="" style="rounded=0;whiteSpace=wrap;html=1;fontSize=8;strokeWidth=1;fillColor=default;spacing=1;rotation=90;" vertex="1" parent="YJIOkTXqwVeN9oeFz0Is-35">
          <mxGeometry x="266" y="326" width="80" height="60" as="geometry" />
        </mxCell>
        <mxCell id="YJIOkTXqwVeN9oeFz0Is-68" value="" style="group;spacing=1;strokeWidth=1;rotation=90;" vertex="1" connectable="0" parent="YJIOkTXqwVeN9oeFz0Is-35">
          <mxGeometry x="351" y="291" width="46" height="56" as="geometry" />
        </mxCell>
        <mxCell id="YJIOkTXqwVeN9oeFz0Is-73" value="" style="group;rotation=90;" vertex="1" connectable="0" parent="YJIOkTXqwVeN9oeFz0Is-68">
          <mxGeometry x="-5" y="5" width="46" height="46" as="geometry" />
        </mxCell>
        <mxCell id="YJIOkTXqwVeN9oeFz0Is-79" value="" style="group;rotation=90;" vertex="1" connectable="0" parent="YJIOkTXqwVeN9oeFz0Is-73">
          <mxGeometry width="46" height="46" as="geometry" />
        </mxCell>
        <mxCell id="YJIOkTXqwVeN9oeFz0Is-63" value="" style="whiteSpace=wrap;html=1;aspect=fixed;fontSize=8;strokeWidth=1;fillColor=default;spacing=1;rotation=90;" vertex="1" parent="YJIOkTXqwVeN9oeFz0Is-79">
          <mxGeometry width="46" height="46" as="geometry" />
        </mxCell>
        <mxCell id="YJIOkTXqwVeN9oeFz0Is-65" value="" style="ellipse;whiteSpace=wrap;html=1;aspect=fixed;fontSize=8;strokeWidth=1;fillColor=default;spacing=1;rotation=90;" vertex="1" parent="YJIOkTXqwVeN9oeFz0Is-79">
          <mxGeometry x="12" y="12" width="23" height="23" as="geometry" />
        </mxCell>
        <mxCell id="YJIOkTXqwVeN9oeFz0Is-74" value="" style="group;spacing=1;strokeWidth=1;rotation=90;" vertex="1" connectable="0" parent="YJIOkTXqwVeN9oeFz0Is-35">
          <mxGeometry x="225" y="291" width="46" height="56" as="geometry" />
        </mxCell>
        <mxCell id="YJIOkTXqwVeN9oeFz0Is-75" value="" style="group;rotation=90;" vertex="1" connectable="0" parent="YJIOkTXqwVeN9oeFz0Is-74">
          <mxGeometry x="-5" y="5" width="46" height="46" as="geometry" />
        </mxCell>
        <mxCell id="YJIOkTXqwVeN9oeFz0Is-78" value="" style="group;rotation=90;" vertex="1" connectable="0" parent="YJIOkTXqwVeN9oeFz0Is-75">
          <mxGeometry x="2" width="46" height="46" as="geometry" />
        </mxCell>
        <mxCell id="YJIOkTXqwVeN9oeFz0Is-76" value="" style="whiteSpace=wrap;html=1;aspect=fixed;fontSize=8;strokeWidth=1;fillColor=default;spacing=1;rotation=90;" vertex="1" parent="YJIOkTXqwVeN9oeFz0Is-78">
          <mxGeometry width="46" height="46" as="geometry" />
        </mxCell>
        <mxCell id="YJIOkTXqwVeN9oeFz0Is-77" value="" style="ellipse;whiteSpace=wrap;html=1;aspect=fixed;fontSize=8;strokeWidth=1;fillColor=default;spacing=1;rotation=90;" vertex="1" parent="YJIOkTXqwVeN9oeFz0Is-78">
          <mxGeometry x="12" y="12" width="23" height="23" as="geometry" />
        </mxCell>
        <mxCell id="YJIOkTXqwVeN9oeFz0Is-7" value="3V3" style="ellipse;whiteSpace=wrap;html=1;aspect=fixed;strokeWidth=1;fillColor=default;verticalAlign=top;horizontal=1;fontSize=8;spacing=1;spacingTop=6;rotation=90;" vertex="1" parent="YJIOkTXqwVeN9oeFz0Is-80">
          <mxGeometry x="416" y="272" width="10" height="10" as="geometry" />
        </mxCell>
        <mxCell id="YJIOkTXqwVeN9oeFz0Is-8" value="GND" style="ellipse;whiteSpace=wrap;html=1;aspect=fixed;strokeWidth=1;fillColor=default;verticalAlign=top;horizontal=1;fontSize=8;spacing=1;spacingTop=6;rotation=90;" vertex="1" parent="YJIOkTXqwVeN9oeFz0Is-80">
          <mxGeometry x="416" y="246" width="10" height="10" as="geometry" />
        </mxCell>
        <mxCell id="YJIOkTXqwVeN9oeFz0Is-9" value="D15" style="ellipse;whiteSpace=wrap;html=1;aspect=fixed;strokeWidth=1;fillColor=default;verticalAlign=top;horizontal=1;fontSize=8;spacing=1;spacingTop=6;rotation=90;" vertex="1" parent="YJIOkTXqwVeN9oeFz0Is-80">
          <mxGeometry x="416" y="220" width="10" height="10" as="geometry" />
        </mxCell>
        <mxCell id="YJIOkTXqwVeN9oeFz0Is-10" value="D2&lt;br style=&quot;font-size: 8px;&quot;&gt;" style="ellipse;whiteSpace=wrap;html=1;aspect=fixed;strokeWidth=1;fillColor=default;verticalAlign=top;horizontal=1;fontSize=8;spacing=1;spacingTop=6;rotation=90;" vertex="1" parent="YJIOkTXqwVeN9oeFz0Is-80">
          <mxGeometry x="416" y="194" width="10" height="10" as="geometry" />
        </mxCell>
        <mxCell id="YJIOkTXqwVeN9oeFz0Is-11" value="D4" style="ellipse;whiteSpace=wrap;html=1;aspect=fixed;strokeWidth=1;fillColor=default;verticalAlign=top;horizontal=1;fontSize=8;spacing=1;spacingTop=6;rotation=90;" vertex="1" parent="YJIOkTXqwVeN9oeFz0Is-80">
          <mxGeometry x="416" y="167" width="10" height="10" as="geometry" />
        </mxCell>
        <mxCell id="YJIOkTXqwVeN9oeFz0Is-12" value="RX2" style="ellipse;whiteSpace=wrap;html=1;aspect=fixed;strokeWidth=1;fillColor=default;verticalAlign=top;horizontal=1;fontSize=8;spacing=1;spacingTop=6;rotation=90;" vertex="1" parent="YJIOkTXqwVeN9oeFz0Is-80">
          <mxGeometry x="416" y="141" width="10" height="10" as="geometry" />
        </mxCell>
        <mxCell id="YJIOkTXqwVeN9oeFz0Is-13" value="TX2" style="ellipse;whiteSpace=wrap;html=1;aspect=fixed;strokeWidth=1;fillColor=default;verticalAlign=top;horizontal=1;fontSize=8;spacing=1;spacingTop=6;rotation=90;" vertex="1" parent="YJIOkTXqwVeN9oeFz0Is-80">
          <mxGeometry x="416" y="115" width="10" height="10" as="geometry" />
        </mxCell>
        <mxCell id="YJIOkTXqwVeN9oeFz0Is-14" value="D5" style="ellipse;whiteSpace=wrap;html=1;aspect=fixed;strokeWidth=1;fillColor=default;verticalAlign=top;horizontal=1;fontSize=8;spacing=1;spacingTop=6;rotation=90;" vertex="1" parent="YJIOkTXqwVeN9oeFz0Is-80">
          <mxGeometry x="416" y="89" width="10" height="10" as="geometry" />
        </mxCell>
        <mxCell id="YJIOkTXqwVeN9oeFz0Is-15" value="D18" style="ellipse;whiteSpace=wrap;html=1;aspect=fixed;strokeWidth=1;fillColor=default;verticalAlign=top;horizontal=1;fontSize=8;spacing=1;spacingTop=6;rotation=90;" vertex="1" parent="YJIOkTXqwVeN9oeFz0Is-80">
          <mxGeometry x="416" y="63" width="10" height="10" as="geometry" />
        </mxCell>
        <mxCell id="YJIOkTXqwVeN9oeFz0Is-16" value="D19" style="ellipse;whiteSpace=wrap;html=1;aspect=fixed;strokeWidth=1;fillColor=default;verticalAlign=top;horizontal=1;fontSize=8;spacing=1;spacingTop=6;rotation=90;" vertex="1" parent="YJIOkTXqwVeN9oeFz0Is-80">
          <mxGeometry x="416" y="37" width="10" height="10" as="geometry" />
        </mxCell>
        <mxCell id="YJIOkTXqwVeN9oeFz0Is-17" value="D21" style="ellipse;whiteSpace=wrap;html=1;aspect=fixed;strokeWidth=1;fillColor=default;verticalAlign=top;horizontal=1;fontSize=8;spacing=1;spacingTop=6;rotation=90;" vertex="1" parent="YJIOkTXqwVeN9oeFz0Is-80">
          <mxGeometry x="416" y="11" width="10" height="10" as="geometry" />
        </mxCell>
        <mxCell id="YJIOkTXqwVeN9oeFz0Is-18" value="RX0" style="ellipse;whiteSpace=wrap;html=1;aspect=fixed;strokeWidth=1;fillColor=default;verticalAlign=top;horizontal=1;fontSize=8;spacing=1;spacingTop=6;rotation=90;" vertex="1" parent="YJIOkTXqwVeN9oeFz0Is-80">
          <mxGeometry x="416" y="-16" width="10" height="10" as="geometry" />
        </mxCell>
        <mxCell id="YJIOkTXqwVeN9oeFz0Is-22" value="TX0&lt;br style=&quot;font-size: 8px;&quot;&gt;" style="ellipse;whiteSpace=wrap;html=1;aspect=fixed;strokeWidth=1;fillColor=default;verticalAlign=top;horizontal=1;fontSize=8;spacing=1;spacingTop=6;rotation=90;" vertex="1" parent="YJIOkTXqwVeN9oeFz0Is-80">
          <mxGeometry x="416" y="-42" width="10" height="10" as="geometry" />
        </mxCell>
        <mxCell id="YJIOkTXqwVeN9oeFz0Is-25" value="D28" style="ellipse;whiteSpace=wrap;html=1;aspect=fixed;strokeWidth=1;fillColor=default;verticalAlign=top;horizontal=1;fontSize=8;spacing=1;spacingTop=6;rotation=90;" vertex="1" parent="YJIOkTXqwVeN9oeFz0Is-80">
          <mxGeometry x="416" y="-68" width="10" height="10" as="geometry" />
        </mxCell>
        <mxCell id="YJIOkTXqwVeN9oeFz0Is-27" value="D23&lt;br style=&quot;font-size: 8px;&quot;&gt;" style="ellipse;whiteSpace=wrap;html=1;aspect=fixed;strokeWidth=1;fillColor=default;verticalAlign=top;horizontal=1;fontSize=8;spacing=1;spacingTop=6;rotation=90;" vertex="1" parent="YJIOkTXqwVeN9oeFz0Is-80">
          <mxGeometry x="416" y="-94" width="10" height="10" as="geometry" />
        </mxCell>
        <mxCell id="YJIOkTXqwVeN9oeFz0Is-84" style="edgeStyle=orthogonalEdgeStyle;rounded=0;orthogonalLoop=1;jettySize=auto;html=1;exitX=0;exitY=0.84;exitDx=0;exitDy=0;exitPerimeter=0;entryX=0.5;entryY=0;entryDx=0;entryDy=0;fontSize=8;endArrow=none;endFill=0;strokeWidth=3;strokeColor=#3333FF;" edge="1" parent="YJIOkTXqwVeN9oeFz0Is-87" source="YJIOkTXqwVeN9oeFz0Is-1" target="YJIOkTXqwVeN9oeFz0Is-15">
          <mxGeometry relative="1" as="geometry" />
        </mxCell>
        <mxCell id="YJIOkTXqwVeN9oeFz0Is-1" value="esp-btn-18" style="pointerEvents=1;verticalLabelPosition=bottom;shadow=0;dashed=0;align=center;html=1;verticalAlign=top;shape=mxgraph.electrical.electro-mechanical.push_switch_no;rotation=90;" vertex="1" parent="YJIOkTXqwVeN9oeFz0Is-87">
          <mxGeometry x="500" y="262" width="75" height="19" as="geometry" />
        </mxCell>
        <mxCell id="YJIOkTXqwVeN9oeFz0Is-85" style="edgeStyle=orthogonalEdgeStyle;rounded=0;orthogonalLoop=1;jettySize=auto;html=1;exitX=0;exitY=0.84;exitDx=0;exitDy=0;exitPerimeter=0;fontSize=8;endArrow=none;endFill=0;strokeColor=#FF0000;strokeWidth=3;entryX=0.5;entryY=0;entryDx=0;entryDy=0;" edge="1" parent="YJIOkTXqwVeN9oeFz0Is-87" source="YJIOkTXqwVeN9oeFz0Is-2" target="YJIOkTXqwVeN9oeFz0Is-16">
          <mxGeometry relative="1" as="geometry">
            <mxPoint x="351" y="153" as="targetPoint" />
          </mxGeometry>
        </mxCell>
        <mxCell id="YJIOkTXqwVeN9oeFz0Is-2" value="esp-btn-19" style="pointerEvents=1;verticalLabelPosition=bottom;shadow=0;dashed=0;align=center;html=1;verticalAlign=top;shape=mxgraph.electrical.electro-mechanical.push_switch_no;rotation=90;" vertex="1" parent="YJIOkTXqwVeN9oeFz0Is-87">
          <mxGeometry x="436" y="262" width="75" height="19" as="geometry" />
        </mxCell>
        <mxCell id="YJIOkTXqwVeN9oeFz0Is-86" style="edgeStyle=orthogonalEdgeStyle;rounded=0;orthogonalLoop=1;jettySize=auto;html=1;exitX=0;exitY=0.84;exitDx=0;exitDy=0;exitPerimeter=0;entryX=0.5;entryY=0;entryDx=0;entryDy=0;fontSize=8;endArrow=none;endFill=0;strokeColor=#00CC00;strokeWidth=3;" edge="1" parent="YJIOkTXqwVeN9oeFz0Is-87" source="YJIOkTXqwVeN9oeFz0Is-3" target="YJIOkTXqwVeN9oeFz0Is-17">
          <mxGeometry relative="1" as="geometry" />
        </mxCell>
        <mxCell id="YJIOkTXqwVeN9oeFz0Is-3" value="esp-btn-21" style="pointerEvents=1;verticalLabelPosition=bottom;shadow=0;dashed=0;align=center;html=1;verticalAlign=top;shape=mxgraph.electrical.electro-mechanical.push_switch_no;rotation=90;" vertex="1" parent="YJIOkTXqwVeN9oeFz0Is-87">
          <mxGeometry x="357" y="262" width="75" height="19" as="geometry" />
        </mxCell>
        <mxCell id="YJIOkTXqwVeN9oeFz0Is-81" style="edgeStyle=orthogonalEdgeStyle;rounded=0;orthogonalLoop=1;jettySize=auto;html=1;exitX=0.5;exitY=0;exitDx=0;exitDy=0;entryX=1;entryY=0.84;entryDx=0;entryDy=0;entryPerimeter=0;fontSize=8;endArrow=none;endFill=0;strokeWidth=3;" edge="1" parent="YJIOkTXqwVeN9oeFz0Is-87" source="YJIOkTXqwVeN9oeFz0Is-8" target="YJIOkTXqwVeN9oeFz0Is-3">
          <mxGeometry relative="1" as="geometry" />
        </mxCell>
        <mxCell id="YJIOkTXqwVeN9oeFz0Is-82" style="edgeStyle=orthogonalEdgeStyle;rounded=0;orthogonalLoop=1;jettySize=auto;html=1;exitX=0.5;exitY=0;exitDx=0;exitDy=0;entryX=1;entryY=0.84;entryDx=0;entryDy=0;entryPerimeter=0;fontSize=8;endArrow=none;endFill=0;strokeWidth=3;" edge="1" parent="YJIOkTXqwVeN9oeFz0Is-87" source="YJIOkTXqwVeN9oeFz0Is-8" target="YJIOkTXqwVeN9oeFz0Is-2">
          <mxGeometry relative="1" as="geometry" />
        </mxCell>
        <mxCell id="YJIOkTXqwVeN9oeFz0Is-83" style="edgeStyle=orthogonalEdgeStyle;rounded=0;orthogonalLoop=1;jettySize=auto;html=1;exitX=0.5;exitY=0;exitDx=0;exitDy=0;entryX=1;entryY=0.84;entryDx=0;entryDy=0;entryPerimeter=0;fontSize=8;endArrow=none;endFill=0;strokeWidth=3;" edge="1" parent="YJIOkTXqwVeN9oeFz0Is-87" source="YJIOkTXqwVeN9oeFz0Is-8" target="YJIOkTXqwVeN9oeFz0Is-1">
          <mxGeometry relative="1" as="geometry" />
        </mxCell>
      </root>
    </mxGraphModel>
  </diagram>
</mxfile>
